<?xml version="1.0" standalone="no"?>
<!DOCTYPE svg PUBLIC "-//W3C//DTD SVG 20010904//EN"
 "http://www.w3.org/TR/2001/REC-SVG-20010904/DTD/svg10.dtd">
<svg version="1.0" xmlns="http://www.w3.org/2000/svg"
 width="260.000000pt" height="260.000000pt" viewBox="0 0 260.000000 260.000000"
 preserveAspectRatio="xMidYMid meet">
<metadata>
Created by potrace 1.11, written by Peter Selinger 2001-2013
</metadata>
<g transform="translate(0.000000,260.000000) scale(0.100000,-0.100000)"
fill="#000000" stroke="none">
<path d="M1805 2515 c-62 -31 -112 -76 -170 -152 -25 -32 -63 -80 -85 -108
-55 -68 -84 -132 -120 -264 -39 -144 -59 -184 -130 -251 l-57 -55 -123 -370
c-67 -203 -127 -374 -132 -380 -5 -5 -4 4 1 20 6 17 38 153 71 304 33 151 62
277 64 280 2 3 7 22 10 41 3 19 15 73 25 120 11 46 19 85 18 86 -46 37 -156
83 -266 111 -14 3 -225 8 -469 10 l-442 5 2 -804 3 -803 195 1 195 0 2 220 c1
120 2 225 2 232 1 10 37 12 162 10 l160 -3 70 -135 70 -134 -10 -61 c-18 -100
-20 -114 -27 -209 -3 -50 -7 -106 -9 -123 -2 -21 2 -33 9 -33 19 0 167 75 206
104 104 78 209 205 255 309 30 68 104 290 150 446 35 124 51 163 41 106 -3
-17 -10 -68 -16 -115 -6 -47 -13 -96 -15 -110 -2 -14 -6 -50 -10 -80 -3 -30
-8 -66 -10 -80 -2 -14 -7 -43 -10 -65 -29 -223 -34 -270 -29 -274 3 -3 277 -6
610 -6 l604 0 0 163 0 162 -430 0 -430 0 2 162 3 163 373 -1 c253 0 372 3 373
10 1 6 2 79 3 163 l1 152 -330 0 c-181 0 -351 0 -377 0 l-48 1 0 160 c0 146 2
160 18 161 9 0 199 1 422 2 l405 2 1 153 1 152 -443 0 -442 0 -27 -31 c-66
-80 -81 -149 -41 -196 l24 -28 -30 -83 c-35 -95 -46 -105 -19 -16 10 32 19 63
20 67 1 5 -8 17 -20 27 -14 13 -23 35 -26 63 -6 50 10 87 101 231 41 65 66
121 92 205 43 137 72 175 126 165 72 -13 88 -13 103 2 20 20 6 47 -39 76 -21
14 -44 44 -62 82 -16 33 -34 62 -39 63 -6 2 -33 -8 -60 -22z m-987 -931 c110
-31 174 -132 167 -259 -5 -82 -29 -138 -78 -180 -65 -56 -113 -66 -313 -68
-97 -1 -180 1 -186 4 -10 7 -15 500 -5 516 9 15 358 4 415 -13z"/>
</g>
</svg>
